
<svg xmlns="http://www.w3.org/2000/svg" viewBox="0 0 64 64" fill="none">
  <rect x="6" y="6" width="52" height="52" rx="12" fill="#0B0B0F"/>
  <path d="M32 16c-8.8 0-16 7.2-16 16 0 7 4.6 12.9 11 15 .8.1 1-.3 1-.7v-2.6c-4.5 1-5.4-2-5.4-2-.7-1.8-1.8-2.3-1.8-2.3-1.5-1 .1-1 .1-1 1.6.1 2.5 1.7 2.5 1.7 1.5 2.5 3.9 1.8 4.8 1.4.1-1.1.6-1.8 1-2.2-3.6-.4-7.4-1.8-7.4-8.1 0-1.8.6-3.2 1.7-4.4-.2-.4-.8-2 .2-4.1 0 0 1.4-.4 4.5 1.7 1.3-.4 2.7-.5 4.1-.5s2.8.2 4.1.5c3.1-2.1 4.5-1.7 4.5-1.7 1 2.1.4 3.7.2 4.1 1.1 1.2 1.7 2.6 1.7 4.4 0 6.3-3.8 7.7-7.4 8.1.6.5 1.1 1.5 1.1 3v4.5c0 .4.3.8 1 .7 6.4-2.1 11-8 11-15 0-8.8-7.2-16-16-16Z" fill="#FFFFFF"/>
</svg>
