
<svg xmlns="http://www.w3.org/2000/svg" viewBox="0 0 64 64" fill="none">
  <circle cx="32" cy="32" r="26" fill="#2081E2"/>
  <path d="M40.5 26.5c-1.4-6.2-7.6-10.1-13.9-8.6-3.5.8-6.4 3.3-7.6 6.6 2.5-1.7 6.3-2.3 9.3-.8 2.5 1.2 3.9 3.6 4.1 6.2l4.4-3.4 3.7 0Z" fill="#FFFFFF" opacity=".95"/>
  <path d="M18 40.5c1.8 3.8 5.6 6.5 10 6.5 5.5 0 10.2-4.1 10.9-9.5H27.5l-2.7-3.9c-.2-.3-.6-.4-.9-.2-2.1 1.3-3.8 3.3-5.9 7.1Z" fill="#FFFFFF"/>
  <path d="M42 37.5c0 5.5-4.5 10-10 10-3.6 0-6.7-1.9-8.4-4.7 1.8 1.2 4 1.8 6.4 1.8 5.5 0 10-4.5 10-10 0-1.2-.2-2.3-.6-3.3l2.1 6.2c.3.6.5.8.5 0Z" fill="#FFFFFF" opacity=".55"/>
</svg>
