
<svg xmlns="http://www.w3.org/2000/svg" viewBox="0 0 64 64" fill="none">
  <rect x="6" y="6" width="52" height="52" rx="14" fill="#0B0B0F"/>
  <path d="M38 18c2.4 3.5 5.7 5.7 9 6.3v7.3c-3.6-.2-6.9-1.3-9-2.8v15.2c0 7.5-6.1 13.6-13.6 13.6S10.8 51.5 10.8 44s6.1-13.6 13.6-13.6c.8 0 1.6.1 2.4.2v7.8c-.8-.3-1.6-.5-2.4-.5-3.7 0-6.8 3-6.8 6.8s3 6.8 6.8 6.8 6.8-3 6.8-6.8V14.8H38Z" fill="#FFFFFF"/>
  <path d="M36.4 20.2c2.3 3.1 5.4 5.1 8.6 5.6v3.2c-3.1-.3-6.2-1.5-8.6-3.2v16.2c0 6.4-5.2 11.6-11.6 11.6-3.1 0-5.9-1.2-8-3.2 2.1 1.3 4.5 2 7 2 6.4 0 11.6-5.2 11.6-11.6V20.2Z" fill="#25F4EE" opacity=".95"/>
  <path d="M24.4 33.7c.8 0 1.6.1 2.4.3v3.6c-.7-.4-1.5-.6-2.4-.6-2.7 0-4.9 2.2-4.9 4.9 0 1.8 1 3.4 2.4 4.2-2.6-.3-4.7-2.5-4.7-5.2 0-2.9 2.3-5.2 5.2-5.2Z" fill="#FE2C55" opacity=".95"/>
</svg>
