
<svg xmlns="http://www.w3.org/2000/svg" viewBox="0 0 64 64" fill="none">
  <rect x="6" y="6" width="52" height="52" rx="14" fill="#5865F2"/>
  <path d="M42.7 22.5c-2-.9-4.1-1.5-6.3-1.8l-.8 1.6c-2.3-.3-4.6-.3-6.9 0l-.8-1.6c-2.2.3-4.3.9-6.3 1.8-4 6-5.1 11.9-4.6 17.7 2.4 1.8 5.1 3.1 8 4l1.7-2.9c-.9-.3-1.8-.8-2.6-1.3l.6-.4c4.9 2.3 10.3 2.3 15.2 0l.6.4c-.8.5-1.7.9-2.6 1.3l1.7 2.9c2.9-.9 5.6-2.2 8-4 .6-5.8-.6-11.7-4.6-17.7Z" fill="#FFFFFF"/>
  <circle cx="26.5" cy="34.5" r="2.6" fill="#5865F2"/>
  <circle cx="37.5" cy="34.5" r="2.6" fill="#5865F2"/>
</svg>
